HIERARCHY
ROOT Hips
{
	OFFSET -0.001795 -0.223333 0.028219
	CHANNELS 6 Xposition Yposition Zposition Zrotation Yrotation Xrotation 
	JOINT LeftUpLeg
	{
		OFFSET 0.069520 -0.091406 -0.006815
		CHANNELS 3 Zrotation Yrotation Xrotation
		JOINT LeftLeg
		{
			OFFSET 0.034277 -0.375199 -0.004496
			CHANNELS 3 Zrotation Yrotation Xrotation
			JOINT LeftFoot
			{
				OFFSET -0.013596 -0.397961 -0.043693
				CHANNELS 3 Zrotation Yrotation Xrotation
				JOINT LeftToe
				{
					OFFSET 0.026358 -0.055791 0.119288
					CHANNELS 3 Zrotation Yrotation Xrotation
					End Site
					{
						OFFSET 0.000000 0.000000 0.000000
					}
				}
			}
		}
	}
	JOINT RightUpLeg
	{
		OFFSET -0.067670 -0.090522 -0.004320
		CHANNELS 3 Zrotation Yrotation Xrotation
		JOINT RightLeg
		{
			OFFSET -0.038290 -0.382569 -0.008850
			CHANNELS 3 Zrotation Yrotation Xrotation
			JOINT RightFoot
			{
				OFFSET 0.015774 -0.398415 -0.042312
				CHANNELS 3 Zrotation Yrotation Xrotation
				JOINT RightToe
				{
					OFFSET -0.025372 -0.048144 0.123348
					CHANNELS 3 Zrotation Yrotation Xrotation
					End Site
					{
						OFFSET 0.000000 0.000000 0.000000
					}
				}
			}
		}
	}
	JOINT Spine
	{
		OFFSET -0.002533 0.108963 -0.026696
		CHANNELS 3 Zrotation Yrotation Xrotation
		JOINT Spine1
		{
			OFFSET 0.005487 0.135180 0.001092
			CHANNELS 3 Zrotation Yrotation Xrotation
			JOINT Spine2
			{
				OFFSET 0.001457 0.052922 0.025425
				CHANNELS 3 Zrotation Yrotation Xrotation
				JOINT Neck
				{
					OFFSET -0.002778 0.213870 -0.042857
					CHANNELS 3 Zrotation Yrotation Xrotation
					JOINT Head
					{
						OFFSET 0.005152 0.064970 0.051349
						CHANNELS 3 Zrotation Yrotation Xrotation
						End Site
						{
							OFFSET 0.000000 0.000000 0.000000
						}
					}
				}
				JOINT LeftShoulder
				{
					OFFSET 0.078845 0.121749 -0.034090
					CHANNELS 3 Zrotation Yrotation Xrotation
					JOINT LeftArm
					{
						OFFSET 0.090977 0.030469 -0.008868
						CHANNELS 3 Zrotation Yrotation Xrotation
						JOINT LeftForeArm
						{
							OFFSET 0.259612 -0.012772 -0.027456
							CHANNELS 3 Zrotation Yrotation Xrotation
							JOINT LeftHand
							{
								OFFSET 0.249234 0.008986 -0.001171
								CHANNELS 3 Zrotation Yrotation Xrotation
								End Site
								{
									OFFSET 0.000000 0.000000 0.000000
								}
							}
						}
					}
				}
				JOINT RightShoulder
				{
					OFFSET -0.081759 0.118833 -0.038615
					CHANNELS 3 Zrotation Yrotation Xrotation
					JOINT RightArm
					{
						OFFSET -0.096012 0.032551 -0.009143
						CHANNELS 3 Zrotation Yrotation Xrotation
						JOINT RightForeArm
						{
							OFFSET -0.253742 -0.013329 -0.021401
							CHANNELS 3 Zrotation Yrotation Xrotation
							JOINT RightHand
							{
								OFFSET -0.255298 0.007772 -0.005559
								CHANNELS 3 Zrotation Yrotation Xrotation
								End Site
								{
									OFFSET 0.000000 0.000000 0.000000
								}
							}
						}
					}
				}
			}
		}
	}
}
MOTION
Frames: 13
Frame Time: 0.050000
0.000000 0.818833 0.000000 2.965412 -5.227861 16.105902 25.029241 5.099541 -36.515437 -13.616693 4.489434 25.396013 9.205105 18.985318 8.689687 0.000000 0.000000 0.000000 -27.718230 -3.382788 -41.262277 10.314477 -2.886448 38.936618 -14.269915 -30.700451 16.616201 0.000000 0.000000 0.000000 8.555421 -5.236347 48.422549 -7.191430 1.726802 -34.747695 -3.583884 4.997019 26.072108 13.299525 -1.512063 -47.353992 0.000000 0.000000 0.000000 -35.761201 -21.871147 13.005447 -34.386477 -22.216267 0.235206 -6.325861 -37.500198 3.892624 0.000000 0.000000 0.000000 28.651494 10.646816 6.480389 49.359124 25.527837 3.044270 9.033430 45.761972 6.614167 0.000000 0.000000 0.000000 
-0.013667 0.820024 -0.006385 2.881800 -6.002770 17.124378 26.175772 5.660657 -36.678849 -13.841356 4.465218 23.926780 9.256715 18.937993 11.640925 0.000000 0.000000 0.000000 -27.979900 -3.604102 -44.419580 12.384736 -3.930898 40.782716 -14.431404 -30.907611 17.712436 0.000000 0.000000 0.000000 8.729676 -5.346919 50.521476 -7.865838 1.826560 -33.556653 -2.950321 6.576531 22.879875 9.040900 0.693536 -50.997472 0.000000 0.000000 0.000000 -33.462461 -20.683060 10.815533 -35.162402 -23.160368 1.049680 -9.064487 -39.969645 5.103744 0.000000 0.000000 0.000000 27.628572 8.229178 5.236325 49.615536 24.659358 3.073768 13.975292 48.105006 9.346483 0.000000 0.000000 0.000000 
-0.023358 0.822253 -0.012262 3.534679 -5.212287 16.095935 25.046110 5.079527 -36.573219 -11.990858 3.738450 24.146693 8.455808 17.749572 13.394624 0.000000 0.000000 0.000000 -26.410159 -3.297082 -43.684674 10.031277 -2.885672 41.517524 -14.549987 -31.171303 16.585313 0.000000 0.000000 0.000000 9.461905 -6.010401 51.322579 -8.717311 1.961813 -33.281693 -4.119761 4.375837 22.688755 11.533776 -0.314624 -50.214303 0.000000 0.000000 0.000000 -32.946898 -20.088658 11.184477 -36.099262 -24.210125 1.174985 -7.680100 -39.941327 4.694118 0.000000 0.000000 0.000000 28.808566 9.852790 5.652378 48.599745 24.119384 2.840317 16.988728 47.684609 10.279495 0.000000 0.000000 0.000000 
-0.028923 0.822823 -0.017591 3.533664 -5.669834 16.875189 26.590202 5.831367 -37.443860 -13.938677 4.466872 24.015402 8.451096 17.727564 15.662664 0.000000 0.000000 0.000000 -27.032332 -3.624264 -45.978435 11.624402 -3.759094 42.730032 -14.597686 -31.030334 18.121813 0.000000 0.000000 0.000000 8.864536 -5.743843 52.869199 -8.513467 1.914947 -33.927173 -4.137892 4.575251 22.297477 9.734940 0.288399 -50.029238 0.000000 0.000000 0.000000 -31.948965 -19.868486 10.844284 -37.578766 -24.647197 1.522634 -6.458779 -41.138346 4.446490 0.000000 0.000000 0.000000 25.436024 9.447069 5.233482 50.674595 24.960558 3.662843 19.005845 50.352324 12.050546 0.000000 0.000000 0.000000 
-0.028964 0.822982 -0.022494 3.369295 -5.059903 16.893525 25.934460 5.707064 -38.742228 -12.479558 4.020430 25.212015 8.036455 17.203058 15.982737 0.000000 0.000000 0.000000 -26.292730 -3.723556 -47.373162 10.791570 -3.560992 44.769773 -14.602835 -30.522070 20.174863 0.000000 0.000000 0.000000 9.016426 -6.166458 54.324424 -8.196946 1.838391 -34.527888 -4.449011 4.333915 22.400418 10.033717 0.273362 -50.533771 0.000000 0.000000 0.000000 -31.323035 -20.188115 10.997583 -37.277881 -24.563350 1.461845 -6.479225 -44.123141 4.831313 0.000000 0.000000 0.000000 25.538176 9.750541 5.471263 49.825557 24.210714 3.190604 23.505939 53.405871 15.324371 0.000000 0.000000 0.000000 
-0.022196 0.821426 -0.026686 2.667665 -5.864523 17.291744 26.315721 6.188330 -39.336955 -12.547515 4.204130 25.848439 8.495064 17.783747 15.299688 0.000000 0.000000 0.000000 -26.067378 -3.469411 -48.349006 10.777523 -3.412733 44.504653 -14.256160 -30.074715 20.633171 0.000000 0.000000 0.000000 8.099413 -5.556449 56.087569 -7.575289 1.718212 -35.930290 -3.705331 4.787291 22.829840 10.547390 0.400059 -52.501766 0.000000 0.000000 0.000000 -31.455433 -20.694818 11.333416 -36.150224 -24.916780 1.429276 -6.553945 -44.587919 4.925072 0.000000 0.000000 0.000000 24.003585 9.755751 5.482771 50.497040 24.880927 3.572717 26.857965 55.025352 17.855154 0.000000 0.000000 0.000000 
-0.009255 0.818696 -0.030020 1.968970 -5.785339 17.215304 25.912733 6.397920 -41.001105 -11.961982 4.276990 28.421858 8.587602 17.940482 13.653722 0.000000 0.000000 0.000000 -25.510733 -3.354184 -49.131942 9.619072 -2.845135 45.519624 -13.808238 -29.123575 22.321978 0.000000 0.000000 0.000000 8.057712 -5.644443 57.119902 -7.471660 1.699458 -35.823308 -3.407329 4.130852 22.551509 11.591138 0.045149 -52.170467 0.000000 0.000000 0.000000 -31.386186 -20.828962 11.729988 -35.533587 -25.710762 1.510336 -6.391984 -45.712164 5.065001 0.000000 0.000000 0.000000 23.425530 10.251688 5.541722 49.995984 25.597772 3.864740 29.494045 56.349521 19.788475 0.000000 0.000000 0.000000 
0.008153 0.814223 -0.032580 1.197031 -7.089134 17.195190 25.947197 6.986322 -41.799013 -12.448688 4.894312 30.583972 9.384546 19.086416 11.166690 0.000000 0.000000 0.000000 -25.182372 -2.853828 -49.674141 8.327162 -1.919488 45.190159 -12.902796 -27.998462 22.583325 0.000000 0.000000 0.000000 7.075904 -4.666071 57.643573 -6.490555 1.590325 -35.347056 -3.422213 4.448471 22.291994 11.732078 0.048344 -52.425159 0.000000 0.000000 0.000000 -30.393773 -22.257481 12.651970 -35.121699 -26.247434 1.610271 -3.964092 -46.063142 4.072421 0.000000 0.000000 0.000000 23.622197 11.231722 6.161764 49.705101 26.569732 4.239827 28.632828 57.463749 19.781497 0.000000 0.000000 0.000000 
0.026435 0.809683 -0.034682 0.750154 -7.211978 17.133614 25.416731 7.203900 -43.497687 -12.676143 5.365361 33.258352 9.705592 19.686369 8.714198 0.000000 0.000000 0.000000 -25.494624 -2.851653 -49.005137 7.424981 -1.394787 43.928840 -12.452414 -27.394165 22.674194 0.000000 0.000000 0.000000 6.315544 -4.163217 57.744011 -5.963622 1.541857 -34.811767 -3.134390 4.552726 21.963084 12.743138 -0.222802 -52.202566 0.000000 0.000000 0.000000 -29.853882 -23.380725 13.328987 -34.369834 -26.936284 1.744448 -2.339204 -46.676178 3.421360 0.000000 0.000000 0.000000 23.324093 11.872767 6.556082 49.602573 27.384555 4.622734 25.949677 58.186774 18.522275 0.000000 0.000000 0.000000 
0.042226 0.806411 -0.036592 -0.241482 -8.230641 17.353343 26.178205 8.112442 -44.447424 -13.893782 6.354636 35.173684 10.219489 20.533787 7.150600 0.000000 0.000000 0.000000 -25.633510 -2.529521 -48.777984 7.392935 -1.206654 42.124245 -11.904977 -26.782901 22.774921 0.000000 0.000000 0.000000 4.926504 -2.988312 57.681425 -5.198009 1.442336 -34.880766 -3.005760 5.196912 21.850735 14.034784 -0.588968 -51.972820 0.000000 0.000000 0.000000 -28.226971 -24.017450 13.354428 -33.673749 -27.277545 1.767147 -2.961596 -46.605948 3.625928 0.000000 0.000000 0.000000 25.213834 12.622150 7.314346 47.802999 27.638340 4.371911 24.942032 59.198746 18.317178 0.000000 0.000000 0.000000 
0.055193 0.804889 -0.038106 -1.030726 -8.354197 17.370818 26.576896 8.578353 -45.293712 -14.605569 6.941361 36.543456 10.360952 20.829904 6.010668 0.000000 0.000000 0.000000 -26.293986 -2.578867 -47.536006 8.290660 -1.584410 39.684798 -11.804453 -26.660343 22.971947 0.000000 0.000000 0.000000 3.638106 -2.157099 57.583417 -4.363077 1.339411 -35.271942 -2.527326 6.088054 21.902679 14.783507 -0.772393 -51.847357 0.000000 0.000000 0.000000 -27.272091 -25.147935 13.610487 -32.753007 -26.880272 1.622914 -2.621329 -47.440655 3.449436 0.000000 0.000000 0.000000 26.977186 12.897651 8.023425 47.169913 28.280018 4.402808 24.158163 59.468026 18.134592 0.000000 0.000000 0.000000 
0.067082 0.803520 -0.039462 -2.267154 -9.124176 17.791643 27.671574 9.532693 -45.782988 -15.623033 7.729728 37.433280 10.686865 21.393377 5.044118 0.000000 0.000000 0.000000 -26.578521 -2.305939 -46.623849 9.367435 -1.896665 36.583614 -11.633602 -26.575833 22.985490 0.000000 0.000000 0.000000 2.126575 -0.980874 57.339528 -3.711556 1.262818 -35.709105 -1.794612 6.437431 22.012200 17.085879 -1.440363 -51.787500 0.000000 0.000000 0.000000 -26.552535 -25.041428 13.409888 -31.304397 -26.991506 1.443683 -4.597794 -48.430325 4.388299 0.000000 0.000000 0.000000 28.714435 13.290709 8.555585 46.671795 28.777313 4.427665 24.229877 57.951804 17.639711 0.000000 0.000000 0.000000 
0.078935 0.803363 -0.041339 -2.944232 -9.815467 18.622143 28.096650 10.161536 -46.393123 -16.607146 8.329020 37.359461 11.133577 22.206171 4.269315 0.000000 0.000000 0.000000 -27.093562 -2.151686 -45.991683 9.777430 -1.911443 33.232856 -11.421106 -26.400898 23.471858 0.000000 0.000000 0.000000 1.089833 -0.132162 56.770021 -3.300323 1.221815 -35.946276 -1.420192 6.398721 21.507589 18.565139 -1.907976 -51.398101 0.000000 0.000000 0.000000 -26.805282 -25.504343 13.928954 -30.422252 -26.431308 1.213389 -6.350164 -49.171339 5.300116 0.000000 0.000000 0.000000 30.452916 13.175694 8.564137 45.370115 28.641801 4.168651 27.411347 57.215912 19.115018 0.000000 0.000000 0.000000 
